<svg width="2200" height="578" viewBox="0 0 1600 420" xmlns="http://www.w3.org/2000/svg" role="img" aria-label="Glass command surface preview">
  <defs>
    <linearGradient id="accentA" x1="0" y1="0" x2="1" y2="1">
      <stop offset="0%" stop-color="#ea4335"/>
      <stop offset="100%" stop-color="#fbbc05"/>
    </linearGradient>
    <linearGradient id="accentB" x1="0" y1="0" x2="1" y2="1">
      <stop offset="0%" stop-color="#1a73e8"/>
      <stop offset="100%" stop-color="#34a853"/>
    </linearGradient>
    <filter id="glassShadow" x="-20%" y="-20%" width="140%" height="160%">
      <feGaussianBlur in="SourceAlpha" stdDeviation="0.8" result="edgeBlur"/>
      <feOffset in="edgeBlur" dx="0" dy="10" result="offsetBlur"/>
      <feColorMatrix in="offsetBlur" type="matrix" values="0 0 0 0 0 0 0 0 0 0 0 0 0 0 0 0 0 0 0.35 0" result="shadow"/>
      <feMerge>
        <feMergeNode in="shadow"/>
        <feMergeNode in="SourceGraphic"/>
      </feMerge>
    </filter>
    <style>
      .bg { fill: #000000; }
      .panel { fill: rgba(0, 0, 0, 0.66); stroke: none; filter: url(#glassShadow); }
      .title { font: 700 30px Arial, sans-serif; fill: #f9fafb; }
      .lineA { fill: #1a73e8; }
      .lineB { fill: #34a853; }
      .lineC { fill: #fbbc05; }
      .lineD { fill: #ea4335; }
      .cmd { font: 600 17px Arial, sans-serif; fill: #e5e7eb; }
    </style>
  </defs>

  <rect class="bg" x="0" y="0" width="1600" height="420"/>
  <rect class="panel" x="76" y="74" width="1448" height="286" rx="40"/>

  <text class="title" x="114" y="124">Enterprise Command Surface</text>

  <rect class="lineA" x="114" y="154" width="36" height="6" rx="3"/>
  <text class="cmd" x="164" y="161">$ cd pegasus/apps/backend-go &amp;&amp; go build ./...</text>

  <rect class="lineB" x="114" y="196" width="36" height="6" rx="3"/>
  <text class="cmd" x="164" y="203">$ cd pegasus/apps/admin-portal &amp;&amp; npm run dev</text>

  <rect class="lineC" x="114" y="238" width="36" height="6" rx="3"/>
  <text class="cmd" x="164" y="245">$ cd pegasus &amp;&amp; docker-compose up -d</text>

  <rect class="lineD" x="114" y="280" width="36" height="6" rx="3"/>
  <text class="cmd" x="164" y="287">$ cd pegasus &amp;&amp; go test ./...</text>

  <path d="M1368,56 l60,0 0,60 60,0 0,60 -60,0 0,60 -60,0 0,-60 -60,0 0,-60 60,0 z" fill="url(#accentA)" opacity="0.74"/>
  <circle cx="1298" cy="292" r="56" fill="url(#accentB)" opacity="0.34"/>
</svg>
