<svg width="2200" height="1086" viewBox="0 0 1600 790" xmlns="http://www.w3.org/2000/svg" role="img" aria-label="Reliability control plane clean glass style">
  <defs>
    <linearGradient id="accentBlue" x1="0" y1="0" x2="1" y2="1">
      <stop offset="0%" stop-color="#1a73e8"/>
      <stop offset="100%" stop-color="#34a853"/>
    </linearGradient>
    <linearGradient id="accentRed" x1="0" y1="0" x2="1" y2="1">
      <stop offset="0%" stop-color="#ea4335"/>
      <stop offset="100%" stop-color="#fbbc05"/>
    </linearGradient>
    <radialGradient id="mist" cx="0" cy="0" r="1" gradientTransform="translate(186 124) rotate(6) scale(400 220)" gradientUnits="userSpaceOnUse">
      <stop offset="0%" stop-color="#34a853" stop-opacity="0.2"/>
      <stop offset="100%" stop-color="#f1f3f4" stop-opacity="0"/>
    </radialGradient>
    <filter id="softShape" x="-20%" y="-20%" width="140%" height="140%">
      <feGaussianBlur stdDeviation="10" result="blur"/>
      <feMerge>
        <feMergeNode in="blur"/>
        <feMergeNode in="SourceGraphic"/>
      </feMerge>
    </filter>
    <filter id="glassShadow" x="-20%" y="-20%" width="140%" height="160%">
      <feGaussianBlur in="SourceAlpha" stdDeviation="0.8" result="edgeBlur"/>
      <feOffset in="edgeBlur" dx="0" dy="10" result="offsetBlur"/>
      <feColorMatrix in="offsetBlur" type="matrix" values="0 0 0 0 0 0 0 0 0 0 0 0 0 0 0 0 0 0 0.35 0" result="shadow"/>
      <feMerge>
        <feMergeNode in="shadow"/>
        <feMergeNode in="SourceGraphic"/>
      </feMerge>
    </filter>
    <marker id="arrow" markerWidth="10" markerHeight="8" refX="9" refY="4" orient="auto" markerUnits="strokeWidth">
      <path d="M0,0 L10,4 L0,8 Z" fill="#E5E7EB"/>
    </marker>
    <style>
      .bg { fill: #000000; }
      .panel { fill: rgba(0, 0, 0, 0.66); stroke: none; filter: url(#glassShadow); }
      .title { font: 700 34px Arial, sans-serif; fill: #F9FAFB; }
      .subtitle { font: 500 17px Arial, sans-serif; fill: #D1D5DB; }
      .node { fill: rgba(0, 0, 0, 0.60); stroke: none; filter: url(#glassShadow); }
      .h { font: 700 16px Arial, sans-serif; fill: #f9fafb; }
      .t { font: 500 13px Arial, sans-serif; fill: #e5e7eb; }
      .arrowLine { stroke: #E5E7EB; stroke-width: 2.2; fill: none; marker-end: url(#arrow); }
      .arrowDashed { stroke: #9CA3AF; stroke-width: 2; stroke-dasharray: 8 6; fill: none; marker-end: url(#arrow); }
      .callout { fill: rgba(0, 0, 0, 0.64); stroke: none; filter: url(#glassShadow); }
      .calloutTitle { font: 700 15px Arial, sans-serif; fill: #f9fafb; }
      .calloutText { font: 600 13px Arial, sans-serif; fill: #f3f4f6; }
    </style>
  </defs>

  <rect class="bg" x="0" y="0" width="1600" height="790"/>
  <rect x="0" y="0" width="1600" height="790" fill="url(#mist)"/>

  <g filter="url(#softShape)">
    <circle cx="122" cy="114" r="72" fill="url(#accentBlue)" opacity="0.32"/>
    <path d="M1410,74 l84,0 0,56 56,0 0,56 -56,0 0,56 -84,0 0,-56 -56,0 0,-56 56,0 z" fill="url(#accentRed)" opacity="0.74"/>
  </g>

  <text class="title" x="54" y="66">Reliability and Consistency Control Plane</text>
  <text class="subtitle" x="54" y="96">State mutation, outbox publication, cache coherence, and fanout stability under high concurrency</text>

  <rect class="panel" x="42" y="128" width="1516" height="620" rx="40"/>

  <rect class="node" x="80" y="190" width="230" height="118" rx="32"/>
  <text class="h" x="98" y="220">1. Mutating API Call</text>
  <text class="t" x="98" y="244">Authenticated request enters</text>
  <text class="t" x="98" y="262">chi router middleware chain</text>

  <rect class="node" x="352" y="190" width="246" height="118" rx="32"/>
  <text class="h" x="370" y="220">2. Role and Scope Gate</text>
  <text class="t" x="370" y="244">RequireRole and scope resolve</text>
  <text class="t" x="370" y="262">request authority boundary</text>

  <rect class="node" x="640" y="190" width="280" height="118" rx="32"/>
  <text class="h" x="660" y="220">3. Spanner RW Transaction</text>
  <text class="t" x="660" y="244">Domain mutation and version gate</text>
  <text class="t" x="660" y="262">execute atomically</text>

  <rect class="node" x="962" y="190" width="264" height="118" rx="32"/>
  <text class="h" x="982" y="220">4. Outbox Row Emit</text>
  <text class="t" x="982" y="244">Event payload written in same</text>
  <text class="t" x="982" y="262">transaction as state update</text>

  <rect class="node" x="1268" y="190" width="242" height="118" rx="32"/>
  <text class="h" x="1288" y="220">5. Commit Success</text>
  <text class="t" x="1288" y="244">State and event become</text>
  <text class="t" x="1288" y="262">durable together</text>

  <rect class="node" x="220" y="376" width="270" height="118" rx="32"/>
  <text class="h" x="240" y="406">6. Cache Invalidate</text>
  <text class="t" x="240" y="430">Delete key and publish</text>
  <text class="t" x="240" y="448">invalidation over Redis channel</text>

  <rect class="node" x="552" y="376" width="286" height="118" rx="32"/>
  <text class="h" x="572" y="406">7. Outbox Relay Loop</text>
  <text class="t" x="572" y="430">Poll unpublished rows, write to</text>
  <text class="t" x="572" y="448">Kafka with aggregate key order</text>

  <rect class="node" x="900" y="376" width="254" height="118" rx="32"/>
  <text class="h" x="920" y="406">8. Consumer Apply</text>
  <text class="t" x="920" y="430">Idempotency and version checks</text>
  <text class="t" x="920" y="448">reject stale replays</text>

  <rect class="node" x="1216" y="376" width="266" height="118" rx="32"/>
  <text class="h" x="1236" y="406">9. Realtime Fanout</text>
  <text class="t" x="1236" y="430">WebSocket broadcast and push</text>
  <text class="t" x="1236" y="448">notify subscribed actors</text>

  <rect class="callout" x="118" y="548" width="1366" height="176" rx="40"/>
  <text class="calloutTitle" x="146" y="578">Failure-tolerant behavior:</text>
  <text class="calloutText" x="146" y="602">1) Redis publish failure does not block local websocket delivery (fail-open relay).</text>
  <text class="calloutText" x="146" y="626">2) Webhook flow verifies signature first, then idempotency guard, then transactional mutation.</text>
  <text class="calloutText" x="146" y="650">3) Priority guard sheds lower-priority requests under load to protect payment and dispatch paths.</text>
  <text class="calloutText" x="146" y="674">4) Edge ingress uses header-based ring-hash affinity to stabilize supplier-to-pod routing.</text>

  <path class="arrowLine" d="M310 248 L352 248"/>
  <path class="arrowLine" d="M598 248 L640 248"/>
  <path class="arrowLine" d="M920 248 L962 248"/>
  <path class="arrowLine" d="M1226 248 L1268 248"/>

  <path class="arrowLine" d="M1388 308 L1388 364"/>
  <path class="arrowLine" d="M355 376 L355 320"/>
  <path class="arrowLine" d="M490 436 L552 436"/>
  <path class="arrowLine" d="M838 436 L900 436"/>
  <path class="arrowLine" d="M1154 436 L1216 436"/>

  <path class="arrowDashed" d="M1350 376 L1350 320"/>
  <path class="arrowDashed" d="M780 376 L780 320"/>

  <text class="subtitle" x="54" y="770">Enterprise glass composition: transparent black cards, soft depth blur, 4XL corners, and no borders.</text>
</svg>
