<svg width="1600" height="980" viewBox="0 0 1600 980" xmlns="http://www.w3.org/2000/svg" role="img" aria-label="ATOMOS enterprise architecture overview">
  <defs>
    <style>
      .bg { fill: #f7f9fc; }
      .panel { fill: #ffffff; stroke: #d5deeb; stroke-width: 2; }
      .title { font: 700 36px Arial, sans-serif; fill: #0f172a; }
      .subtitle { font: 500 18px Arial, sans-serif; fill: #334155; }
      .section { font: 700 24px Arial, sans-serif; fill: #0f172a; }
      .boxTitle { font: 700 17px Arial, sans-serif; fill: #0f172a; }
      .boxText { font: 500 14px Arial, sans-serif; fill: #334155; }
      .chip { fill: #eff6ff; stroke: #bfdbfe; stroke-width: 1.5; }
      .chipText { font: 600 13px Arial, sans-serif; fill: #1e3a8a; }
      .nodeA { fill: #eef2ff; stroke: #c7d2fe; stroke-width: 2; }
      .nodeB { fill: #ecfeff; stroke: #a5f3fc; stroke-width: 2; }
      .nodeC { fill: #f0fdf4; stroke: #bbf7d0; stroke-width: 2; }
      .nodeD { fill: #fff7ed; stroke: #fed7aa; stroke-width: 2; }
      .link { stroke: #334155; stroke-width: 2.4; fill: none; marker-end: url(#arrow); }
      .linkDashed { stroke: #64748b; stroke-dasharray: 8 6; stroke-width: 2.2; fill: none; marker-end: url(#arrow); }
    </style>
    <marker id="arrow" markerWidth="10" markerHeight="8" refX="9" refY="4" orient="auto" markerUnits="strokeWidth">
      <path d="M0,0 L10,4 L0,8 Z" fill="#334155" />
    </marker>
  </defs>

  <rect class="bg" x="0" y="0" width="1600" height="980" rx="0" />
  <text class="title" x="68" y="68">ATOMOS Enterprise Architecture Overview</text>
  <text class="subtitle" x="68" y="100">Multi-role logistics operating system with event-driven control plane, geospatial dispatch intelligence, and native-plus-web execution surfaces</text>

  <rect class="panel" x="52" y="140" width="470" height="790" rx="18" />
  <rect class="panel" x="565" y="140" width="470" height="790" rx="18" />
  <rect class="panel" x="1078" y="140" width="470" height="790" rx="18" />

  <text class="section" x="74" y="184">Execution Surfaces</text>
  <text class="section" x="586" y="184">Platform Core</text>
  <text class="section" x="1100" y="184">Data and Event Plane</text>

  <rect class="nodeA" x="82" y="220" width="410" height="92" rx="14" />
  <text class="boxTitle" x="104" y="254">Supplier Operations</text>
  <text class="boxText" x="104" y="278">Admin Portal (web + desktop), Factory Portal, Warehouse Portal</text>

  <rect class="nodeA" x="82" y="334" width="410" height="92" rx="14" />
  <text class="boxTitle" x="104" y="368">Driver Surfaces</text>
  <text class="boxText" x="104" y="392">Android (Compose) and iOS (SwiftUI) route execution clients</text>

  <rect class="nodeA" x="82" y="448" width="410" height="92" rx="14" />
  <text class="boxTitle" x="104" y="482">Retailer Surfaces</text>
  <text class="boxText" x="104" y="506">Android, iOS, and desktop ordering plus receiving workflows</text>

  <rect class="nodeA" x="82" y="562" width="410" height="92" rx="14" />
  <text class="boxTitle" x="104" y="596">Payload Surfaces</text>
  <text class="boxText" x="104" y="620">Terminal (Expo) and native tablet apps for manifest operations</text>

  <rect class="chip" x="82" y="686" width="192" height="42" rx="10" />
  <text class="chipText" x="99" y="712">Role-scoped access</text>
  <rect class="chip" x="292" y="686" width="200" height="42" rx="10" />
  <text class="chipText" x="309" y="712">Realtime state visibility</text>

  <rect class="nodeB" x="594" y="220" width="410" height="110" rx="14" />
  <text class="boxTitle" x="616" y="254">API and Router Layer</text>
  <text class="boxText" x="616" y="278">Go services on chi router, middleware for auth, priority guard, and trace propagation</text>
  <text class="boxText" x="616" y="300">HTTP + WebSocket endpoints with role and scope enforcement</text>

  <rect class="nodeB" x="594" y="352" width="410" height="134" rx="14" />
  <text class="boxTitle" x="616" y="386">Domain Service Mesh</text>
  <text class="boxText" x="616" y="410">Order, Dispatch, Fleet, Payment, Warehouse, Factory, Supplier</text>
  <text class="boxText" x="616" y="432">Telemetry, Replenishment, Routing, Notification, Idempotency</text>
  <text class="boxText" x="616" y="454">Mutation path: ReadWriteTransaction + outbox emit + cache invalidation</text>

  <rect class="nodeB" x="594" y="508" width="410" height="120" rx="14" />
  <text class="boxTitle" x="616" y="542">Realtime Hubs</text>
  <text class="boxText" x="616" y="566">Fleet, Driver, Retailer, Supplier, Telemetry hubs with Redis relay</text>
  <text class="boxText" x="616" y="588">Fail-open local fanout under cross-pod pub-sub degradation</text>

  <rect class="chip" x="594" y="654" width="194" height="42" rx="10" />
  <text class="chipText" x="610" y="680">Auto-dispatch engine</text>
  <rect class="chip" x="804" y="654" width="200" height="42" rx="10" />
  <text class="chipText" x="819" y="680">Manual override freeze-lock</text>

  <rect class="nodeC" x="1108" y="220" width="410" height="110" rx="14" />
  <text class="boxTitle" x="1130" y="254">Google Cloud Spanner</text>
  <text class="boxText" x="1130" y="278">Source of truth for orders, ledger, manifests, routes, nodes, and users</text>
  <text class="boxText" x="1130" y="300">Strong consistency writes and stale reads for scalable query paths</text>

  <rect class="nodeC" x="1108" y="352" width="410" height="122" rx="14" />
  <text class="boxTitle" x="1130" y="386">Redis and Cache Bus</text>
  <text class="boxText" x="1130" y="410">Low-latency reads, token bucket limits, invalidate publish fanout</text>
  <text class="boxText" x="1130" y="432">Distributed guardrails for spikes and replay-safe write paths</text>

  <rect class="nodeC" x="1108" y="496" width="410" height="134" rx="14" />
  <text class="boxTitle" x="1130" y="530">Kafka and Outbox Relay</text>
  <text class="boxText" x="1130" y="554">Transactional outbox guarantees event and state atomicity</text>
  <text class="boxText" x="1130" y="576">Partition key by aggregate id for per-entity ordering</text>
  <text class="boxText" x="1130" y="598">Worker consumers, notifications, AI planning, reconciliation</text>

  <rect class="nodeD" x="1108" y="652" width="410" height="120" rx="14" />
  <text class="boxTitle" x="1130" y="686">AI and Optimization Plane</text>
  <text class="boxText" x="1130" y="710">Demand forecasting, dispatch optimization, freeze-lock aware automation</text>
  <text class="boxText" x="1130" y="732">Operator override support with auditable decision boundaries</text>

  <path class="link" d="M492 266 L592 266" />
  <path class="link" d="M492 380 L592 380" />
  <path class="link" d="M492 494 L592 494" />
  <path class="link" d="M492 608 L592 608" />

  <path class="link" d="M1004 272 L1106 272" />
  <path class="link" d="M1004 420 L1106 420" />
  <path class="link" d="M1004 564 L1106 564" />

  <path class="linkDashed" d="M1312 652 L1312 638" />
  <path class="linkDashed" d="M1312 496 L1312 486" />
  <path class="linkDashed" d="M1312 352 L1312 340" />

  <text class="subtitle" x="68" y="956">Copyright 2026 The Lab Industries. Diagram intent: operational architecture communication for engineering and platform teams.</text>
</svg>
