<svg width="2200" height="1348" viewBox="0 0 1600 980" xmlns="http://www.w3.org/2000/svg" role="img" aria-label="ATOMOS enterprise architecture overview clean glass style">
  <defs>
    <linearGradient id="accentRed" x1="0" y1="0" x2="1" y2="1">
      <stop offset="0%" stop-color="#ea4335"/>
      <stop offset="100%" stop-color="#fbbc05"/>
    </linearGradient>
    <linearGradient id="accentBlue" x1="0" y1="0" x2="1" y2="1">
      <stop offset="0%" stop-color="#1a73e8"/>
      <stop offset="100%" stop-color="#34a853"/>
    </linearGradient>
    <radialGradient id="mistLeft" cx="0" cy="0" r="1" gradientTransform="translate(220 860) rotate(10) scale(380 250)" gradientUnits="userSpaceOnUse">
      <stop offset="0%" stop-color="#1a73e8" stop-opacity="0.24"/>
      <stop offset="100%" stop-color="#f1f3f4" stop-opacity="0"/>
    </radialGradient>
    <radialGradient id="mistRight" cx="0" cy="0" r="1" gradientTransform="translate(1370 120) rotate(-6) scale(360 230)" gradientUnits="userSpaceOnUse">
      <stop offset="0%" stop-color="#ea4335" stop-opacity="0.22"/>
      <stop offset="100%" stop-color="#f1f3f4" stop-opacity="0"/>
    </radialGradient>
    <filter id="softShape" x="-20%" y="-20%" width="140%" height="140%">
      <feGaussianBlur stdDeviation="10" result="blur"/>
      <feMerge>
        <feMergeNode in="blur"/>
        <feMergeNode in="SourceGraphic"/>
      </feMerge>
    </filter>
    <filter id="glassShadow" x="-20%" y="-20%" width="140%" height="160%">
      <feGaussianBlur in="SourceAlpha" stdDeviation="0.8" result="edgeBlur"/>
      <feOffset in="edgeBlur" dx="0" dy="10" result="offsetBlur"/>
      <feColorMatrix in="offsetBlur" type="matrix" values="0 0 0 0 0 0 0 0 0 0 0 0 0 0 0 0 0 0 0.35 0" result="shadow"/>
      <feMerge>
        <feMergeNode in="shadow"/>
        <feMergeNode in="SourceGraphic"/>
      </feMerge>
    </filter>
    <style>
      .bg { fill: #000000; }
      .panel { fill: rgba(255, 255, 255, 0.52); stroke: none; filter: url(#glassShadow); }
      .title { font: 700 38px Arial, sans-serif; fill: #F9FAFB; }
      .subtitle { font: 500 18px Arial, sans-serif; fill: #D1D5DB; }
      .section { font: 700 24px Arial, sans-serif; fill: #f9fafb; }
      .cardTitle { font: 700 17px Arial, sans-serif; fill: #f9fafb; }
      .cardText { font: 500 14px Arial, sans-serif; fill: #e5e7eb; }
      .chip { fill: rgba(255, 255, 255, 0.38); stroke: none; filter: url(#glassShadow); }
      .chipText { font: 600 13px Arial, sans-serif; fill: #f9fafb; }
      .nodeA { fill: rgba(255, 255, 255, 0.44); stroke: none; filter: url(#glassShadow); }
      .nodeB { fill: rgba(255, 255, 255, 0.44); stroke: none; filter: url(#glassShadow); }
      .nodeC { fill: rgba(255, 255, 255, 0.44); stroke: none; filter: url(#glassShadow); }
      .nodeD { fill: rgba(255, 255, 255, 0.44); stroke: none; filter: url(#glassShadow); }
      .link { stroke: #E5E7EB; stroke-width: 2.2; fill: none; marker-end: url(#arrow); }
      .linkDashed { stroke: #9CA3AF; stroke-dasharray: 8 6; stroke-width: 2; fill: none; marker-end: url(#arrow); }
    </style>
    <marker id="arrow" markerWidth="10" markerHeight="8" refX="9" refY="4" orient="auto" markerUnits="strokeWidth">
      <path d="M0,0 L10,4 L0,8 Z" fill="#E5E7EB" />
    </marker>
  </defs>

  <rect class="bg" x="0" y="0" width="1600" height="980"/>
  <rect x="0" y="0" width="1600" height="980" fill="url(#mistLeft)"/>
  <rect x="0" y="0" width="1600" height="980" fill="url(#mistRight)"/>

  <g filter="url(#softShape)">
    <path d="M24,792 C24,612 162,472 350,472 L350,548 C226,548 132,640 132,792 Z" fill="url(#accentBlue)" opacity="0.82"/>
    <rect x="1454" y="72" width="92" height="272" rx="44" fill="url(#accentRed)" opacity="0.8"/>
    <circle cx="1260" cy="100" r="54" fill="#1a73e8" opacity="0.26"/>
  </g>

  <text class="title" x="402" y="98">ATOMOS Enterprise Architecture</text>
  <text class="subtitle" x="402" y="130">Clean control-plane model with Maglev-aware ingress, transactional safety, and geo-intelligent dispatch</text>

  <rect class="panel" x="52" y="164" width="470" height="744" rx="40"/>
  <rect class="panel" x="565" y="164" width="470" height="744" rx="40"/>
  <rect class="panel" x="1078" y="164" width="470" height="744" rx="40"/>

  <text class="section" x="78" y="208">Execution Surfaces</text>
  <text class="section" x="589" y="208">Platform Core</text>
  <text class="section" x="1104" y="208">Data and Event Plane</text>

  <rect class="nodeA" x="82" y="244" width="410" height="98" rx="32"/>
  <text class="cardTitle" x="104" y="278">Supplier Operations</text>
  <text class="cardText" x="104" y="302">Admin Portal (web + desktop), Factory Portal, Warehouse Portal</text>

  <rect class="nodeA" x="82" y="358" width="410" height="98" rx="32"/>
  <text class="cardTitle" x="104" y="392">Driver Surfaces</text>
  <text class="cardText" x="104" y="416">Android (Compose) and iOS (SwiftUI) route execution clients</text>

  <rect class="nodeA" x="82" y="472" width="410" height="98" rx="32"/>
  <text class="cardTitle" x="104" y="506">Retailer Surfaces</text>
  <text class="cardText" x="104" y="530">Android, iOS, and desktop ordering plus receiving workflows</text>

  <rect class="nodeA" x="82" y="586" width="410" height="98" rx="32"/>
  <text class="cardTitle" x="104" y="620">Payload Surfaces</text>
  <text class="cardText" x="104" y="644">Terminal (Expo) and native tablet apps for manifest operations</text>

  <rect class="chip" x="82" y="710" width="192" height="46" rx="24"/>
  <text class="chipText" x="98" y="738">Role-scoped access</text>
  <rect class="chip" x="292" y="710" width="200" height="46" rx="24"/>
  <text class="chipText" x="308" y="738">Realtime visibility</text>

  <rect class="nodeB" x="594" y="244" width="410" height="116" rx="32"/>
  <text class="cardTitle" x="616" y="278">API and Router Layer</text>
  <text class="cardText" x="616" y="302">Go services on chi router, auth, priority guard, trace propagation</text>
  <text class="cardText" x="616" y="324">Ingress supports ring-hash affinity keyed by supplier header</text>

  <rect class="nodeB" x="594" y="376" width="410" height="142" rx="32"/>
  <text class="cardTitle" x="616" y="410">Domain Service Mesh</text>
  <text class="cardText" x="616" y="434">Order, Dispatch, Fleet, Payment, Warehouse, Factory, Supplier</text>
  <text class="cardText" x="616" y="456">Telemetry, Replenishment, Routing, Notification, Idempotency</text>
  <text class="cardText" x="616" y="478">Mutation shape: RW transaction + outbox emit + cache invalidate</text>

  <rect class="nodeB" x="594" y="532" width="410" height="126" rx="32"/>
  <text class="cardTitle" x="616" y="566">Realtime Hubs</text>
  <text class="cardText" x="616" y="590">Fleet, Driver, Retailer, Supplier, Telemetry hubs with Redis relay</text>
  <text class="cardText" x="616" y="612">Fail-open local fanout under cross-pod pub-sub degradation</text>

  <rect class="chip" x="594" y="678" width="194" height="46" rx="24"/>
  <text class="chipText" x="610" y="706">Auto-dispatch engine</text>
  <rect class="chip" x="804" y="678" width="200" height="46" rx="24"/>
  <text class="chipText" x="819" y="706">Manual override lock</text>

  <rect class="nodeC" x="1108" y="244" width="410" height="116" rx="32"/>
  <text class="cardTitle" x="1130" y="278">Google Cloud Spanner</text>
  <text class="cardText" x="1130" y="302">Source of truth for orders, ledger, manifests, routes, nodes, users</text>
  <text class="cardText" x="1130" y="324">Maglev-derived read-router supports deterministic regional reads</text>

  <rect class="nodeC" x="1108" y="376" width="410" height="128" rx="32"/>
  <text class="cardTitle" x="1130" y="410">Redis and Cache Bus</text>
  <text class="cardText" x="1130" y="434">Low-latency reads, token bucket limits, invalidate publish fanout</text>
  <text class="cardText" x="1130" y="456">Distributed guardrails for spikes and replay-safe write paths</text>

  <rect class="nodeC" x="1108" y="520" width="410" height="142" rx="32"/>
  <text class="cardTitle" x="1130" y="554">Kafka and Outbox Relay</text>
  <text class="cardText" x="1130" y="578">Transactional outbox guarantees event and state atomicity</text>
  <text class="cardText" x="1130" y="600">Partition key by aggregate id preserves per-entity ordering</text>
  <text class="cardText" x="1130" y="622">Worker consumers, notifications, AI planning, reconciliation</text>

  <rect class="nodeD" x="1108" y="676" width="410" height="126" rx="32"/>
  <text class="cardTitle" x="1130" y="710">AI and Optimization Plane</text>
  <text class="cardText" x="1130" y="734">Demand forecasting, dispatch optimization, freeze-lock aware automation</text>
  <text class="cardText" x="1130" y="756">Operator override support with auditable decision boundaries</text>

  <path class="link" d="M492 294 L592 294"/>
  <path class="link" d="M492 408 L592 408"/>
  <path class="link" d="M492 522 L592 522"/>
  <path class="link" d="M492 636 L592 636"/>

  <path class="link" d="M1004 300 L1106 300"/>
  <path class="link" d="M1004 444 L1106 444"/>
  <path class="link" d="M1004 590 L1106 590"/>

  <path class="linkDashed" d="M1312 676 L1312 666"/>
  <path class="linkDashed" d="M1312 520 L1312 510"/>
  <path class="linkDashed" d="M1312 376 L1312 366"/>

  <text class="subtitle" x="66" y="938">Enterprise glass language: neutral background, transparent black cards, 4XL rounding, and zero borders.</text>
</svg>
