<svg width="2200" height="770" viewBox="0 0 1600 560" xmlns="http://www.w3.org/2000/svg" role="img" aria-label="Glass hero variation B">
  <defs>
    <linearGradient id="b1" x1="0" y1="0" x2="1" y2="1">
      <stop offset="0%" stop-color="#ea4335"/>
      <stop offset="100%" stop-color="#fbbc05"/>
    </linearGradient>
    <linearGradient id="b2" x1="0" y1="0" x2="1" y2="1">
      <stop offset="0%" stop-color="#1a73e8"/>
      <stop offset="100%" stop-color="#34a853"/>
    </linearGradient>
    <filter id="glass" x="-20%" y="-20%" width="140%" height="160%">
      <feGaussianBlur in="SourceAlpha" stdDeviation="0.8" result="edgeBlur"/>
      <feOffset in="edgeBlur" dx="0" dy="10" result="offsetBlur"/>
      <feColorMatrix in="offsetBlur" type="matrix" values="0 0 0 0 0 0 0 0 0 0 0 0 0 0 0 0 0 0 0.35 0" result="shadow"/>
      <feMerge>
        <feMergeNode in="shadow"/>
        <feMergeNode in="SourceGraphic"/>
      </feMerge>
    </filter>
    <style>
      .bg { fill: #f1f3f4; }
      .card { fill: rgba(0, 0, 0, 0.5); stroke: none; filter: url(#glass); }
      .title { font: 700 56px Arial, sans-serif; fill: #f9fafb; }
      .sub { font: 500 22px Arial, sans-serif; fill: #e5e7eb; }
      .chip { fill: rgba(0, 0, 0, 0.38); stroke: none; filter: url(#glass); }
      .chipText { font: 600 16px Arial, sans-serif; fill: #f9fafb; }
    </style>
  </defs>

  <rect class="bg" x="0" y="0" width="1600" height="560"/>
  <circle cx="132" cy="84" r="64" fill="url(#b2)" opacity="0.66"/>
  <circle cx="1480" cy="486" r="96" fill="url(#b1)" opacity="0.62"/>
  <path d="M68,502 C300,388 470,204 620,68" fill="none" stroke="url(#b1)" stroke-width="52" stroke-linecap="round" opacity="0.58"/>
  <path d="M1546,100 C1324,184 1154,346 990,500" fill="none" stroke="url(#b2)" stroke-width="52" stroke-linecap="round" opacity="0.58"/>

  <rect class="card" x="178" y="116" width="1244" height="332" rx="40"/>
  <text class="title" x="236" y="224">Enterprise visuals, cleaner and sharper</text>
  <text class="sub" x="236" y="274">Neutral backgrounds, transparent black glass cards, 4XL rounding, no borders</text>

  <rect class="chip" x="236" y="320" width="290" height="56" rx="28"/>
  <text class="chipText" x="266" y="355">Architecture map</text>
  <rect class="chip" x="544" y="320" width="290" height="56" rx="28"/>
  <text class="chipText" x="574" y="355">Dispatch pipeline</text>
  <rect class="chip" x="852" y="320" width="290" height="56" rx="28"/>
  <text class="chipText" x="882" y="355">Reliability plane</text>
</svg>
