<svg width="1600" height="420" viewBox="0 0 1600 420" xmlns="http://www.w3.org/2000/svg" role="img" aria-label="Omni code surface preview">
  <defs>
    <linearGradient id="cA" x1="0" y1="0" x2="1" y2="1">
      <stop offset="0%" stop-color="#ff3ea5"/>
      <stop offset="100%" stop-color="#ff7a18"/>
    </linearGradient>
    <linearGradient id="cB" x1="0" y1="0" x2="1" y2="1">
      <stop offset="0%" stop-color="#40e0ff"/>
      <stop offset="100%" stop-color="#2f5bff"/>
    </linearGradient>
    <filter id="glassCard" x="-20%" y="-20%" width="140%" height="160%">
      <feGaussianBlur in="SourceAlpha" stdDeviation="0.6" result="edgeBlur"/>
      <feOffset in="edgeBlur" dx="0" dy="8" result="offsetBlur"/>
      <feColorMatrix in="offsetBlur" type="matrix" values="0 0 0 0 0.03 0 0 0 0 0.05 0 0 0 0 0.12 0 0 0 0.42 0" result="shadow"/>
      <feMerge>
        <feMergeNode in="shadow"/>
        <feMergeNode in="SourceGraphic"/>
      </feMerge>
    </filter>
    <style>
      .bg { fill: #090b12; }
      .panel { fill: rgba(176, 202, 255, 0.10); stroke: none; filter: url(#glassCard); }
      .title { font: 700 30px Arial, sans-serif; fill: #f6f8ff; }
      .lineA { fill: #40e0ff; }
      .lineB { fill: #9cff00; }
      .lineC { fill: #ff7a18; }
      .lineD { fill: #9c7dff; }
      .cmd { font: 600 17px Arial, sans-serif; fill: #f6f8ff; }
    </style>
  </defs>

  <rect class="bg" x="0" y="0" width="1600" height="420"/>
  <rect class="panel" x="76" y="74" width="1448" height="286" rx="20"/>

  <text class="title" x="114" y="124">Omni Command Surface</text>

  <rect class="lineA" x="114" y="154" width="36" height="6" rx="3"/>
  <text class="cmd" x="164" y="161">$ cd the-lab-monorepo/apps/backend-go &amp;&amp; go build ./...</text>

  <rect class="lineB" x="114" y="196" width="36" height="6" rx="3"/>
  <text class="cmd" x="164" y="203">$ cd the-lab-monorepo/apps/admin-portal &amp;&amp; npm run dev</text>

  <rect class="lineC" x="114" y="238" width="36" height="6" rx="3"/>
  <text class="cmd" x="164" y="245">$ cd the-lab-monorepo &amp;&amp; docker-compose up -d</text>

  <rect class="lineD" x="114" y="280" width="36" height="6" rx="3"/>
  <text class="cmd" x="164" y="287">$ cd the-lab-monorepo &amp;&amp; go test ./...</text>

  <path d="M1360,54 l64,0 0,64 64,0 0,64 -64,0 0,64 -64,0 0,-64 -64,0 0,-64 64,0 z" fill="url(#cA)" opacity="0.88"/>
  <circle cx="1296" cy="292" r="56" fill="url(#cB)" opacity="0.48"/>
</svg>
