<svg width="1600" height="560" viewBox="0 0 1600 560" xmlns="http://www.w3.org/2000/svg" role="img" aria-label="ATOMOS omni hero banner">
  <defs>
    <linearGradient id="hA" x1="0" y1="0" x2="1" y2="1">
      <stop offset="0%" stop-color="#ff3ea5"/>
      <stop offset="100%" stop-color="#ff7a18"/>
    </linearGradient>
    <linearGradient id="hB" x1="0" y1="0" x2="1" y2="1">
      <stop offset="0%" stop-color="#40e0ff"/>
      <stop offset="100%" stop-color="#2f5bff"/>
    </linearGradient>
    <linearGradient id="hC" x1="0" y1="0" x2="1" y2="1">
      <stop offset="0%" stop-color="#9cff00"/>
      <stop offset="100%" stop-color="#00c96b"/>
    </linearGradient>
    <filter id="hg" x="-30%" y="-30%" width="160%" height="160%">
      <feGaussianBlur stdDeviation="8" result="b"/>
      <feMerge>
        <feMergeNode in="b"/>
        <feMergeNode in="SourceGraphic"/>
      </feMerge>
    </filter>
    <style>
      .bg { fill: #090b12; }
      .t1 { font: 700 58px Arial, sans-serif; fill: #f6f8ff; }
      .t2 { font: 500 22px Arial, sans-serif; fill: #c9d0f5; }
      .chip { fill: #121c34; stroke: #5060a7; stroke-width: 2; }
      .chipText { font: 600 15px Arial, sans-serif; fill: #f6f8ff; }
    </style>
  </defs>

  <rect class="bg" x="0" y="0" width="1600" height="560"/>

  <g filter="url(#hg)">
    <path d="M0,560 L0,310 C180,318 314,224 346,72 L506,72 C482,286 310,474 70,540 Z" fill="url(#hA)" opacity="0.88"/>
    <path d="M1600,0 L1600,260 C1410,274 1278,350 1200,520 L1070,520 C1148,294 1322,116 1548,44 Z" fill="url(#hB)" opacity="0.92"/>
    <path d="M1248,64 l84,0 0,84 84,0 0,84 -84,0 0,84 -84,0 0,-84 -84,0 0,-84 84,0 z" fill="url(#hC)" opacity="0.85"/>
    <circle cx="272" cy="174" r="62" fill="url(#hB)" opacity="0.36"/>
  </g>

  <text class="t1" x="120" y="214">ATOMOS</text>
  <text class="t2" x="120" y="258">Enterprise logistics orchestration at hyperscale with omni-grade clarity and control.</text>

  <rect class="chip" x="120" y="304" width="246" height="48" rx="12"/>
  <text class="chipText" x="144" y="334">Maglev-aware ingress</text>

  <rect class="chip" x="384" y="304" width="286" height="48" rx="12"/>
  <text class="chipText" x="408" y="334">Transactional outbox safety</text>

  <rect class="chip" x="688" y="304" width="278" height="48" rx="12"/>
  <text class="chipText" x="712" y="334">Geo-intelligent auto-dispatch</text>
</svg>
