<svg width="2200" height="1375" viewBox="0 0 1600 1000" xmlns="http://www.w3.org/2000/svg" role="img" aria-label="Technology stack composite with current visuals and icon set">
  <defs>
    <filter id="glassShadow" x="-20%" y="-20%" width="140%" height="160%">
      <feGaussianBlur in="SourceAlpha" stdDeviation="0.8" result="edgeBlur"/>
      <feOffset in="edgeBlur" dx="0" dy="10" result="offsetBlur"/>
      <feColorMatrix in="offsetBlur" type="matrix" values="0 0 0 0 0 0 0 0 0 0 0 0 0 0 0 0 0 0 0.35 0" result="shadow"/>
      <feMerge>
        <feMergeNode in="shadow"/>
        <feMergeNode in="SourceGraphic"/>
      </feMerge>
    </filter>
    <style>
      .bg { fill: #000000; }
      .title { font: 700 54px Arial, sans-serif; fill: #f9fafb; }
      .subtitle { font: 500 20px Arial, sans-serif; fill: #d1d5db; }
      .panel { fill: rgba(0, 0, 0, 0.68); stroke: none; filter: url(#glassShadow); }
      .cardTitle { font: 700 30px Arial, sans-serif; fill: #f9fafb; }
      .cardSub { font: 500 16px Arial, sans-serif; fill: #d1d5db; }
      .iconWrap { fill: rgba(0, 0, 0, 0.62); stroke: rgba(148, 163, 184, 0.35); stroke-width: 1; filter: url(#glassShadow); }
      .iconLabel { font: 600 14px Arial, sans-serif; fill: #e5e7eb; }
    </style>
  </defs>

  <rect class="bg" x="0" y="0" width="1600" height="1000"/>

  <text class="title" x="74" y="86">Technology Stack and Platforms Composite</text>
  <text class="subtitle" x="74" y="120">Current matrix and compact visuals plus current icon set in a single SVG</text>

  <rect class="panel" x="60" y="148" width="720" height="350" rx="40"/>
  <text class="cardTitle" x="90" y="195">Current Visual A</text>
  <text class="cardSub" x="90" y="224">techstack-glass-matrix.svg</text>
  <image href="techstack-glass-matrix.svg" x="90" y="246" width="660" height="224" preserveAspectRatio="xMidYMid meet"/>

  <rect class="panel" x="820" y="148" width="720" height="350" rx="40"/>
  <text class="cardTitle" x="850" y="195">Current Visual B</text>
  <text class="cardSub" x="850" y="224">techstack-glass-compact.svg</text>
  <image href="techstack-glass-compact.svg" x="850" y="246" width="660" height="224" preserveAspectRatio="xMidYMid meet"/>

  <rect class="panel" x="60" y="534" width="1480" height="406" rx="40"/>
  <text class="cardTitle" x="90" y="580">Current Technology Icons</text>
  <text class="cardSub" x="90" y="608">Go, Kafka, Redis, Google Cloud, Next.js, React, Tailwind, Tauri, Kotlin, Swift, Terraform, Docker</text>

  <rect class="iconWrap" x="90" y="640" width="215" height="124" rx="24"/>
  <image href="https://cdn.simpleicons.org/go/00ADD8" x="176" y="672" width="42" height="42"/>
  <text class="iconLabel" x="190" y="736" text-anchor="middle">Go</text>

  <rect class="iconWrap" x="328" y="640" width="215" height="124" rx="24"/>
  <image href="https://cdn.simpleicons.org/apachekafka/E8ECF6" x="414" y="672" width="42" height="42"/>
  <text class="iconLabel" x="436" y="736" text-anchor="middle">Kafka</text>

  <rect class="iconWrap" x="566" y="640" width="215" height="124" rx="24"/>
  <image href="https://cdn.simpleicons.org/redis/DC382D" x="652" y="672" width="42" height="42"/>
  <text class="iconLabel" x="674" y="736" text-anchor="middle">Redis</text>

  <rect class="iconWrap" x="804" y="640" width="215" height="124" rx="24"/>
  <image href="https://cdn.simpleicons.org/googlecloud/4285F4" x="890" y="672" width="42" height="42"/>
  <text class="iconLabel" x="912" y="736" text-anchor="middle">Spanner</text>

  <rect class="iconWrap" x="1042" y="640" width="215" height="124" rx="24"/>
  <image href="https://cdn.simpleicons.org/nextdotjs/E8ECF6" x="1128" y="672" width="42" height="42"/>
  <text class="iconLabel" x="1150" y="736" text-anchor="middle">Next.js</text>

  <rect class="iconWrap" x="1280" y="640" width="215" height="124" rx="24"/>
  <image href="https://cdn.simpleicons.org/react/61DAFB" x="1366" y="672" width="42" height="42"/>
  <text class="iconLabel" x="1388" y="736" text-anchor="middle">React</text>

  <rect class="iconWrap" x="90" y="786" width="215" height="124" rx="24"/>
  <image href="https://cdn.simpleicons.org/tailwindcss/06B6D4" x="176" y="818" width="42" height="42"/>
  <text class="iconLabel" x="198" y="882" text-anchor="middle">Tailwind</text>

  <rect class="iconWrap" x="328" y="786" width="215" height="124" rx="24"/>
  <image href="https://cdn.simpleicons.org/tauri/FFC131" x="414" y="818" width="42" height="42"/>
  <text class="iconLabel" x="436" y="882" text-anchor="middle">Tauri</text>

  <rect class="iconWrap" x="566" y="786" width="215" height="124" rx="24"/>
  <image href="https://cdn.simpleicons.org/kotlin/7F52FF" x="652" y="818" width="42" height="42"/>
  <text class="iconLabel" x="674" y="882" text-anchor="middle">Kotlin</text>

  <rect class="iconWrap" x="804" y="786" width="215" height="124" rx="24"/>
  <image href="https://cdn.simpleicons.org/swift/F05138" x="890" y="818" width="42" height="42"/>
  <text class="iconLabel" x="912" y="882" text-anchor="middle">Swift</text>

  <rect class="iconWrap" x="1042" y="786" width="215" height="124" rx="24"/>
  <image href="https://cdn.simpleicons.org/terraform/844FBA" x="1128" y="818" width="42" height="42"/>
  <text class="iconLabel" x="1150" y="882" text-anchor="middle">Terraform</text>

  <rect class="iconWrap" x="1280" y="786" width="215" height="124" rx="24"/>
  <image href="https://cdn.simpleicons.org/docker/2496ED" x="1366" y="818" width="42" height="42"/>
  <text class="iconLabel" x="1388" y="882" text-anchor="middle">Docker</text>
</svg>
