<svg width="640" height="420" viewBox="0 0 640 420" fill="none" xmlns="http://www.w3.org/2000/svg">
  <rect width="640" height="420" rx="28" fill="#F3F4F6"/>
  <rect x="132" y="88" width="376" height="244" rx="24" fill="#FFFFFF" stroke="#E5E7EB" stroke-width="2"/>
  <rect x="168" y="128" width="304" height="22" rx="11" fill="#E5E7EB"/>
  <rect x="168" y="164" width="212" height="16" rx="8" fill="#CBD5E1"/>
  <rect x="168" y="188" width="178" height="16" rx="8" fill="#E5E7EB"/>
  <path d="M426 186L468 204V236C468 267 449 289 426 300C403 289 384 267 384 236V204L426 186Z" fill="#DBEAFE"/>
  <rect x="406" y="224" width="40" height="30" rx="6" stroke="#2563EB" stroke-width="6"/>
  <path d="M413 224V214C413 206.82 418.82 201 426 201C433.18 201 439 206.82 439 214V224" stroke="#2563EB" stroke-width="6" stroke-linecap="round"/>
  <text x="320" y="300" text-anchor="middle" fill="#6B7280" font-family="Inter, Arial, sans-serif" font-size="18" font-weight="500">Access is restricted</text>
</svg>
